<svg height="512pt" viewBox="0 -17 512.0579 512" width="512pt" xmlns="http://www.w3.org/2000/svg"><path d="m335.453125 412.957031 1.074219 4.828125c6.894531 27.308594-14.925782 56.320313-49.246094 59.121094-23.65625 1.917969-47.425781 1.917969-71.082031 0-34.320313-2.765625-56.140625-31.796875-49.246094-59.121094l1.074219-4.828125c1.601562-6.53125 8.042968-10.65625 14.644531-9.386719 45.640625 8.636719 92.496094 8.636719 138.136719 0 6.605468-1.277343 13.046875 2.855469 14.644531 9.386719zm0 0" fill="#607d8b"/><path d="m500.65625 383.808594c-4.539062-8.296875-13.421875-13.269532-22.867188-12.800782-.515624-.015624-1.027343.011719-1.535156.085938-8.464844.824219-16.855468-2.183594-22.871094-8.195312l-32.339843-31.65625-122.949219-104.261719 130.371094-113.9375 15.277344-14.933594c6.011718-6.019531 14.394531-9.054687 22.867187-8.277344 1.875.171875 3.757813.171875 5.632813 0 7.980468-.914062 15.003906-5.703125 18.773437-12.796875 3.667969-6.789062 3.667969-14.972656 0-21.761718-3.292969-6.023438-8.9375-10.40625-15.589844-12.105469-6.648437-1.699219-13.707031-.558594-19.484375 3.144531-1.285156.949219-2.507812 1.976562-3.667968 3.074219 1.136718-1.132813 2.140624-2.390625 2.988281-3.753907 3.832031-5.621093 5.03125-12.632812 3.277343-19.203124-1.753906-6.574219-6.285156-12.054688-12.410156-15.015626-6.917968-3.753906-15.265625-3.753906-22.1875 0-7.183594 3.65625-12.054687 10.675782-12.96875 18.6875-.214844 1.726563-.214844 3.476563 0 5.203126.785156 8.367187-2.296875 16.632812-8.363281 22.445312l-7.59375 7.421875-9.132813 8.023437-132.265624 116.050782-146.347657-124.074219-7.59375-7.421875c-2.230469-2.230469-4.101562-4.792969-5.546875-7.597656-2.347656-4.574219-3.296875-9.738282-2.730468-14.847656 1.054687-9.90625-4.148438-19.429688-13.054688-23.890626-6.933594-3.695312-15.253906-3.695312-22.1875 0-6.125 2.960938-10.65625 8.441407-12.410156 15.015626-1.753906 6.570312-.554688 13.582031 3.28125 19.203124.871094 1.34375 1.871094 2.597657 2.984375 3.753907-1.121094-1.140625-2.351563-2.167969-3.667969-3.074219-5.777344-3.703125-12.835938-4.84375-19.484375-3.144531s-12.296875 6.082031-15.589844 12.105469c-1.507812 2.796874-2.40625 5.878906-2.644531 9.046874-.40625 4.40625.515625 8.832032 2.644531 12.714844 4.734375 8.875 14.414063 13.949219 24.40625 12.796875 8.476563-.792969 16.863281 2.246094 22.871094 8.277344l15.273437 14.933594 135.808594 114.859375-126.421875 110.933594-24.574219 24.0625c-6.015624 6.011718-14.40625 9.019531-22.871093 8.195312-9.960938-1.109375-19.605469 3.914062-24.40625 12.714844-1.453125 2.664062-2.355469 5.59375-2.644531 8.617187-.542969 4.578125.382812 9.210938 2.644531 13.226563 3.246093 6.050781 8.875 10.464844 15.527343 12.167968 6.648438 1.703126 13.707032.539063 19.460938-3.207031 1.363281-.847656 2.621094-1.847656 3.753906-2.988281-1.117187 1.140625-2.144531 2.367188-3.070312 3.671875-3.792969 5.644531-4.964844 12.648437-3.214844 19.21875 1.75 6.574219 6.25 12.070313 12.34375 15.082031 6.953125 3.621094 15.234375 3.621094 22.1875 0 8.953125-4.402344 14.152344-13.980468 12.96875-23.890625-.675781-6.96875 1.40625-13.925781 5.804688-19.371093.789062-1.101563 1.671874-2.128907 2.644531-3.074219l28.074219-27.476563 126.234374-110.335937 128.058594 108.289062 7.339844 7.167969 22.785156 22.355469c6.089844 5.804687 9.199219 14.066406 8.445313 22.445312 0 .339844-.085938.597657-.085938.9375-.699219 10.441407 5.410157 20.140625 15.132813 24.015625 9.722656 3.871094 20.832031 1.03125 27.5-7.035156 6.667968-8.0625 7.371094-19.507812 1.742187-28.328125-.925781-1.304687-1.953125-2.53125-3.070312-3.671875 1.128906 1.140625 2.390625 2.140625 3.753906 2.988281 5.75 3.746094 12.8125 4.910157 19.460937 3.207031 6.648438-1.703124 12.28125-6.117187 15.523438-12.167968 3.757812-6.796875 3.757812-15.046875 0-21.84375zm0 0" fill="#cfd8dc"/><path d="m491.015625 77.035156c-3.769531 7.09375-10.792969 11.882813-18.773437 12.796875.523437-4.566406-.371094-9.183593-2.558594-13.226562-3.292969-6.019531-8.941406-10.40625-15.589844-12.105469-6.648438-1.695312-13.707031-.558594-19.484375 3.148438-1.285156.945312-2.511719 1.972656-3.667969 3.070312 1.136719-1.132812 2.140625-2.390625 2.984375-3.753906 3.835938-5.621094 5.03125-12.628906 3.277344-19.203125-1.75-6.574219-6.28125-12.054688-12.40625-15.015625-4.214844-2.316406-9.054687-3.242188-13.824219-2.644532.914063-8.011718 5.785156-15.03125 12.96875-18.6875 6.921875-3.753906 15.269532-3.753906 22.1875 0 6.125 2.960938 10.65625 8.441407 12.410156 15.015626 1.753907 6.570312.554688 13.582031-3.277343 19.203124-.847657 1.363282-1.851563 2.621094-2.988281 3.753907 1.160156-1.097657 2.382812-2.125 3.667968-3.074219 5.777344-3.703125 12.835938-4.84375 19.484375-3.144531 6.652344 1.699219 12.296875 6.082031 15.589844 12.105469 3.667969 6.789062 3.667969 14.972656 0 21.761718zm0 0" fill="#607d8b"/><path d="m46.292969 47.996094.679687-.675782zm0 0" fill="#b19046"/><path d="m500.65625 405.652344c-3.242188 6.050781-8.875 10.464844-15.523438 12.167968-6.648437 1.703126-13.710937.539063-19.460937-3.207031-1.363281-.847656-2.625-1.847656-3.753906-2.988281 1.117187 1.140625 2.144531 2.367188 3.070312 3.671875 5.570313 8.808594 4.835938 20.203125-1.820312 28.226563-6.652344 8.023437-17.714844 10.851562-27.402344 7.011718-9.691406-3.84375-15.804687-13.488281-15.152344-23.890625 3.371094-.152343 6.667969-1.058593 9.644531-2.644531 6.09375-3.015625 10.59375-8.511719 12.34375-15.082031 1.75-6.570313.578126-13.578125-3.214843-19.222657-.925781-1.300781-1.953125-2.527343-3.070313-3.667968 1.132813 1.136718 2.390625 2.140625 3.753906 2.984375 5.753907 3.746093 12.8125 4.910156 19.460938 3.207031 6.652344-1.703125 12.28125-6.117188 15.527344-12.167969 1.570312-2.773437 2.503906-5.863281 2.730468-9.042969 9.445313-.46875 18.328126 4.503907 22.867188 12.800782 3.757812 6.796875 3.757812 15.046875 0 21.84375zm0 0" fill="#607d8b"/><path d="m377.351562 301.714844c9.640626 38.058594-9.730468 38.058594-38.828124 38.058594-1.195313 0-2.304688.085937-3.414063.171874-1.109375.085938-1.960937.171876-2.898437.339844-22.785157 3.839844-22.101563 29.527344-13.144532 47.105469 9.730469 19.03125-67.921875 19.03125-67.921875 19.03125s-4.78125 0-11.863281-.257813c-21.332031-.9375-63.402344-4.4375-56.0625-18.773437 9.726562-19.027344 9.726562-47.617187-19.371094-47.617187-6.777344.144531-13.558594-.085938-20.308594-.679688-16.984374-1.878906-25.773437-9.132812-18.519531-37.378906 9.644531-38.058594-38.824219-38.058594-29.097656-114.261719 9.214844-72.617187 62.632813-127.914063 143.359375-132.777344 3.925781-.339843 7.851562-.425781 11.863281-.425781 87.378907 0 145.578125 57.085938 155.304688 133.203125 9.726562 76.117187-38.828125 76.203125-29.097657 114.261719zm0 0" fill="#607d8b"/><path d="m311.730469 412.957031 1.074219 4.828125c7.03125 27.308594-15.417969 56.585938-50.917969 58.625-14.660157.835938-29.355469.835938-44.015625 0-35.394532-2.03125-57.949219-31.34375-50.917969-58.625l1.074219-4.828125c1.632812-6.511719 8.054687-10.625 14.652344-9.386719 37.816406 6.9375 76.582031 6.9375 114.398437 0 6.605469-1.273437 13.046875 2.855469 14.652344 9.386719zm0 0" fill="#f5f5f5"/><path d="m353.628906 301.714844c7.167969 28.246094-1.707031 35.5-18.601562 37.378906l-2.902344.253906c-5.207031.425782-11.007812.425782-17.324219.425782-29.097656 0-29.097656 28.589843-19.457031 47.617187 7.339844 14.335937-34.730469 17.835937-56.0625 18.773437-21.332031-.9375-63.402344-4.4375-56.0625-18.773437 9.726562-19.027344 9.726562-47.617187-19.371094-47.617187-6.777344.144531-13.558594-.085938-20.308594-.679688-16.984374-1.878906-25.773437-9.132812-18.519531-37.378906 9.644531-38.058594-38.824219-38.058594-29.097656-114.261719 9.214844-72.617187 62.632813-127.914063 143.359375-132.777344 80.8125 4.863281 134.144531 60.160157 143.445312 132.777344 9.726563 76.203125-38.828124 76.203125-29.097656 114.261719zm0 0" fill="#f5f5f5"/><g fill="#37474f"><path d="m218.09375 238.996094c5.351562 2.574218 9.449219 7.183594 11.375 12.800781 4.4375 13.882813-7.332031 29.796875-26.128906 35.582031-18.800782 5.785156-37.804688-.851562-42.242188-14.753906-4.042968-12.535156 5.207032-26.8125 21.121094-33.65625 9.125 6.003906 20.691406 6.902344 30.636719 2.382812zm0 0"/><path d="m342.382812 272.652344c-4.4375 13.882812-23.339843 20.539062-42.148437 14.753906-18.804687-5.785156-30.660156-21.699219-26.222656-35.609375 1.929687-5.644531 6.070312-10.265625 11.46875-12.800781l7.375 3.167968c9.363281 4.015626 20.152343 2.8125 28.40625-3.167968 15.914062 6.828125 25.199219 21.121094 21.121093 33.65625zm0 0"/><path d="m270.566406 324.636719c-.222656 10.5625-8.847656 19.007812-19.410156 19.007812s-19.1875-8.445312-19.410156-19.007812c0-10.511719 8.6875-28.550781 19.40625-28.550781s19.414062 18.003906 19.414062 28.550781zm0 0"/></g><path d="m251.152344 414.9375c-24.183594 0-66.117188-2.210938-75.1875-17.007812-2.714844-4.394532-2.84375-9.910157-.34375-14.429688 5.339844-8.773438 6.261718-19.539062 2.492187-29.089844-.921875-1.511718-3.734375-6.09375-14.300781-6.09375-19.054688 0-35.515625 0-44.371094-11.433594-6.265625-8.066406-7.117187-19.910156-2.691406-37.28125 3.210938-12.597656-1.492188-19.191406-9.28125-30.132812-10.957031-15.359375-25.96875-36.453125-20.027344-83.054688 10.699219-84.15625 76.5-140.707031 163.710938-140.707031 87.210937 0 153.011718 56.550781 163.746094 140.707031 5.972656 46.601563-9.070313 67.667969-20.027344 83.054688-7.792969 10.941406-12.492188 17.535156-9.285156 30.132812 4.429687 17.371094 3.574218 29.214844-2.6875 37.28125-8.882813 11.433594-25.34375 11.433594-44.375 11.433594-10.5625 0-13.378907 4.582032-14.300782 6.09375-3.777344 9.550782-2.851562 20.320313 2.492188 29.089844 2.5 4.519531 2.371094 10.035156-.34375 14.429688-9.09375 14.796874-51.027344 17.007812-75.21875 17.007812zm-59.625-25.125c6.667968 4.386719 33.1875 8.058594 59.625 8.058594 26.433594 0 52.972656-3.671875 59.628906-8.058594-5.871094-12.347656-9.453125-30.71875-1.132812-44.320312 6.253906-9.707032 17.34375-15.179688 28.851562-14.242188 13.96875 0 27.160156 0 30.921875-4.839844 1.84375-2.378906 3.285156-8.234375-.375-22.59375-5.117187-20.257812 3.527344-32.425781 11.949219-44.246094 10.347656-14.507812 22.082031-31.019531 16.996094-70.996093-9.742188-76.417969-67.414063-125.800781-146.816407-125.800781-79.402343 0-137.0625 49.382812-146.773437 125.800781-5.117188 39.976562 6.632812 56.457031 16.992187 70.996093 8.394531 11.792969 17.066407 23.988282 11.945313 44.246094-3.660156 14.359375-2.226563 20.214844-.375 22.59375 3.761718 4.839844 16.957031 4.839844 30.925781 4.839844 11.507813-.9375 22.597656 4.535156 28.851563 14.242188 8.25 13.59375 4.640624 32.015624-1.214844 44.320312zm0 0"/><path d="m189.847656 297.996094c-15.921875 1.214844-30.816406-7.972656-36.871094-22.75-5.410156-16.75 5.460938-35.3125 25.871094-44.082032 2.636719-1.136718 5.667969-.871093 8.066406.707032 6.671876 4.402344 15.144532 5.046875 22.40625 1.707031l5.242188-2.382813c2.359375-1.074218 5.082031-1.019531 7.398438.15625 7.367187 3.609376 12.988281 10.011719 15.621093 17.78125 2.382813 7.84375 1.5 16.316407-2.4375 23.5-6.359375 11.199219-16.890625 19.429688-29.296875 22.886719-5.179687 1.617188-10.574218 2.453125-16 2.476563zm-7.910156-49.347656c-9.539062 5.425781-15 14.292968-12.714844 21.332031 2.988282 9.386719 17.449219 13.566406 31.617188 9.226562 8.027344-2.179687 14.902344-7.378906 19.183594-14.507812 1.796874-3.136719 2.273437-6.863281 1.320312-10.351563-.75-2.242187-2.117188-4.226562-3.949219-5.726562l-1.015625.453125c-10.960937 5.046875-23.609375 4.890625-34.441406-.425781zm0 0"/><path d="m313.710938 298.003906c-5.417969-.011718-10.804688-.835937-15.976563-2.449218-12.4375-3.445313-23.007813-11.671876-29.398437-22.886719-4.070313-7.175781-4.945313-15.734375-2.410157-23.585938 2.535157-7.851562 8.25-14.28125 15.75-17.722656 2.246094-1.121094 4.871094-1.195313 7.175781-.207031l7.363282 3.167968c6.613281 2.808594 14.214844 1.960938 20.046875-2.234374 2.429687-1.773438 5.613281-2.121094 8.371093-.921876 20.410157 8.769532 31.28125 27.304688 25.863282 44.105469-6.039063 14.75-20.894532 23.929688-36.785156 22.734375zm-27.480469-49.40625c-1.910157 1.519532-3.335938 3.5625-4.101563 5.878906-.929687 3.453126-.453125 7.136719 1.328125 10.238282 4.3125 7.148437 11.226563 12.34375 19.285157 14.507812 14.089843 4.335938 28.527343.128906 31.507812-9.191406 2.277344-7.046875-3.117188-15.855469-12.5625-21.28125-10.007812 5.222656-21.828125 5.6875-32.210938 1.261719zm0 0"/><path d="m251.152344 352.207031c-15.324219.085938-27.820313-12.25-27.9375-27.570312 0-13.082031 10.605468-37.09375 27.9375-37.09375 17.332031 0 27.945312 24.011719 27.945312 37.09375-.121094 15.324219-12.621094 27.65625-27.945312 27.570312zm0-47.597656c-3.746094 0-10.871094 11.945313-10.871094 20.027344.164062 5.886719 4.984375 10.574219 10.875 10.574219s10.710938-4.6875 10.875-10.574219c0-8.054688-7.132812-20.027344-10.878906-20.027344zm0 0"/><path d="m73.804688 121.570312c-2.234376.003907-4.382813-.875-5.976563-2.441406l-15.230469-14.960937c-4.1875-4.230469-10.039062-6.386719-15.972656-5.886719-13.414062 1.519531-26.402344-5.273438-32.8125-17.152344-5.074219-9.34375-5.074219-20.621094 0-29.96875 4.410156-8.132812 12.027344-14.042968 21-16.296875 3.152344-.78125 6.398438-1.109375 9.644531-.972656-.132812-3.058594.175781-6.113281.921875-9.082031 2.289063-9.109375 8.429688-16.773438 16.816406-21 9.453126-5.019532 20.785157-5 30.21875.058594 11.976563 6.144531 18.914063 19.046874 17.433594 32.429687-.515625 5.746094 1.640625 11.410156 5.84375 15.359375l7.570313 7.421875c2.226562 2.125 3.140625 5.28125 2.386719 8.265625-.753907 2.984375-3.054688 5.332031-6.023438 6.144531s-6.144531-.039062-8.308594-2.222656l-7.578125-7.417969c-7.960937-7.671875-11.960937-18.574218-10.847656-29.574218.691406-6.410157-2.726563-12.558594-8.53125-15.359376-4.40625-2.363281-9.695313-2.394531-14.125-.078124-4.101563 1.984374-7.132813 5.65625-8.300781 10.0625-1.027344 4.082031-.253906 8.410156 2.125 11.886718.558594.882813 1.210937 1.703125 1.945312 2.449219 2.285156 2.109375 3.242188 5.292969 2.496094 8.316406-.746094 3.019531-3.078125 5.390625-6.082031 6.195313-3.003907.804687-6.207031-.089844-8.363281-2.335938-.894532-.832031-1.839844-1.601562-2.832032-2.3125-3.789062-2.21875-8.316406-2.804687-12.546875-1.625-4.230469 1.179688-7.800781 4.027344-9.894531 7.886719-2.25 4.230469-2.25 9.300781 0 13.527344 3.0625 5.828125 9.398438 9.171875 15.9375 8.40625 11.050781-1.078125 22.003906 2.832031 29.867188 10.664062l15.242187 14.953125c2.476563 2.425782 3.234375 6.109375 1.925781 9.316406-1.3125 3.210938-4.433594 5.308594-7.898437 5.308594zm0 0"/><path d="m46.292969 56.527344c-3.460938-.007813-6.570313-2.101563-7.882813-5.304688-1.308594-3.199218-.554687-6.875 1.910156-9.304687l.679688-.671875c3.390625-3.078125 8.601562-2.9375 11.816406.324218 3.214844 3.257813 3.28125 8.472657.15625 11.816407l-.683594.675781c-1.59375 1.578125-3.75 2.464844-5.996093 2.464844zm0 0"/><path d="m428.507812 121.570312c-3.464843 0-6.585937-2.097656-7.898437-5.308593-1.308594-3.207031-.550781-6.890625 1.925781-9.320313l15.230469-14.949218c7.878906-7.8125 18.824219-11.722657 29.867187-10.667969 6.523438.789062 12.855469-2.535157 15.90625-8.351563 2.292969-4.261718 2.292969-9.390625 0-13.652344-2.136718-3.949218-5.828124-6.820312-10.179687-7.921874-4.347656-1.097657-8.953125-.355469-12.730469 2.058593-.816406.609375-1.597656 1.265625-2.339844 1.960938-3.386718 3.128906-8.648437 3-11.878906-.292969-3.230468-3.292969-3.261718-8.554688-.066406-11.882812.703125-.703126 1.328125-1.476563 1.867188-2.3125 2.429687-3.503907 3.230468-7.886719 2.203124-12.023438-1.144531-4.351562-4.121093-7.996094-8.160156-9.984375-4.433594-2.378906-9.761718-2.398437-14.214844-.050781-5.816406 2.796875-9.25 8.941406-8.585937 15.359375 1.113281 10.988281-2.882813 21.878906-10.835937 29.542969l-7.578126 7.421874c-3.378906 3.21875-8.714843 3.128907-11.980468-.203124-3.265625-3.332032-3.25-8.667969.035156-11.980469l7.578125-7.425781c4.1875-3.957032 6.335937-9.617188 5.835937-15.359376-1.472656-13.394531 5.492188-26.300781 17.492188-32.425781 9.476562-5.050781 20.847656-5.027343 30.300781.058594 8.316407 4.25 14.378907 11.890625 16.632813 20.949219.742187 2.980468 1.050781 6.054687.914062 9.125 12.664063-.613282 24.558594 6.070312 30.625 17.203125 5.097656 9.371093 5.097656 20.6875 0 30.0625-6.410156 11.851562-19.390625 18.609375-32.777344 17.066406-5.933593-.5-11.789062 1.65625-15.980468 5.886719l-15.234375 14.949218c-1.585938 1.578126-3.734375 2.464844-5.972657 2.46875zm0 0"/><path d="m67.273438 460.863281c-15-.011719-28.09375-10.164062-31.84375-24.6875-.746094-2.972656-1.058594-6.039062-.929688-9.105469-3.246094.167969-6.496094-.160156-9.644531-.964843-9-2.242188-16.625-8.203125-20.972657-16.398438-5.195312-9.34375-5.175781-20.707031.050782-30.03125 6.4375-11.8125 19.378906-18.558593 32.75-17.066406 5.921875.527344 11.773437-1.59375 15.984375-5.792969l24.546875-24.082031c3.378906-3.21875 8.714844-3.125 11.980468.203125 3.265626 3.332031 3.253907 8.667969-.03125 11.984375l-24.550781 24.078125c-7.886719 7.792969-18.835937 11.667969-29.867187 10.574219-6.53125-.75-12.855469 2.578125-15.929688 8.386719-2.355468 4.179687-2.367187 9.277343-.035156 13.46875 2.058594 3.996093 5.71875 6.9375 10.066406 8.085937 4.347656 1.152344 8.980469.410156 12.75-2.046875.902344-.542969 1.742188-1.183594 2.5-1.910156 2.144532-2.28125 5.367188-3.207032 8.394532-2.410156 3.027343.796874 5.375 3.191406 6.117187 6.230468.742187 3.042969-.242187 6.246094-2.5625 8.347656-.851563.878907-1.644531 1.816407-2.375 2.800782-2.101563 3.445312-2.714844 7.59375-1.707031 11.5 1.210937 4.605468 4.4375 8.417968 8.777344 10.371094 4.34375 1.953124 9.332031 1.839843 13.582031-.308594 5.816406-2.789063 9.238281-8.949219 8.53125-15.359375-1.074219-11.007813 2.960937-21.898438 10.949219-29.542969l28.042968-27.503906c3.375-3.21875 8.710938-3.125 11.976563.203125 3.265625 3.332031 3.253906 8.667969-.03125 11.984375l-28.050781 27.5c-4.238282 3.9375-6.4375 9.597656-5.972657 15.363281.941407 9.207031-2.050781 18.382813-8.238281 25.265625-6.191406 6.878906-15 10.828125-24.257812 10.863281zm0 0"/><path d="m47.027344 423.84375c-2.234375.003906-4.378906-.871094-5.976563-2.429688l-.671875-.65625c-3.375-3.300781-3.4375-8.710937-.136718-12.085937 3.296874-3.375 8.707031-3.433594 12.082031-.136719l.683593.675782c2.488282 2.425781 3.257813 6.117187 1.945313 9.332031-1.3125 3.21875-4.445313 5.316406-7.917969 5.3125zm0 0"/><path d="m444.730469 460.863281c-9.265625-.015625-18.09375-3.949219-24.300781-10.832031-6.203126-6.882812-9.207032-16.070312-8.261719-25.289062.460937-5.765626-1.738281-11.425782-5.972657-15.359376l-30.082031-29.507812c-2.285156-2.113281-3.242187-5.296875-2.496093-8.316406.746093-3.019532 3.078124-5.394532 6.082031-6.199219 3.003906-.804687 6.207031.09375 8.359375 2.335937l30.089844 29.5c8 7.640626 12.050781 18.523438 10.992187 29.535157-.710937 6.414062 2.714844 12.574219 8.53125 15.359375 4.246094 2.164062 9.242187 2.292968 13.59375.34375 4.347656-1.949219 7.582031-5.761719 8.789063-10.371094 1.03125-4.121094.269531-8.484375-2.089844-12.015625-.621094-.789063-1.28125-1.546875-1.980469-2.269531-2.179687-2.132813-3.054687-5.269532-2.296875-8.222656.757812-2.957032 3.035156-5.28125 5.972656-6.101563 2.941406-.820313 6.09375-.011719 8.273438 2.121094.722656.695312 1.515625 1.3125 2.371094 1.835937 3.757812 2.480469 8.386718 3.269532 12.757812 2.175782 4.351562-1.105469 8.027344-4.007813 10.121094-7.976563 2.390625-4.195313 2.414062-9.335937.058594-13.554687-3.066407-5.839844-9.410157-9.195313-15.964844-8.445313-11.019532 1.089844-21.953125-2.785156-29.824219-10.574219l-32.316406-31.691406c-2.226563-2.125-3.140625-5.28125-2.386719-8.265625.75-2.984375 3.054688-5.332031 6.023438-6.144531s6.144531.039062 8.308593 2.222656l32.316407 31.695312c4.199218 4.203126 10.046874 6.328126 15.964843 5.792969 13.398438-1.496093 26.367188 5.277344 32.796875 17.125 5.21875 9.367188 5.195313 20.777344-.0625 30.125-4.359375 8.113281-11.949218 14-20.886718 16.210938-3.15625.789062-6.410157 1.113281-9.660157.964843.140625 3.0625-.164062 6.125-.914062 9.097657-3.734375 14.558593-16.875 24.730469-31.90625 24.695312zm0 0"/><path d="m464.988281 423.84375c-3.464843 0-6.589843-2.097656-7.898437-5.304688-1.3125-3.210937-.550782-6.894531 1.925781-9.320312l.683594-.664062c3.394531-3.074219 8.605469-2.921876 11.816406.347656 3.207031 3.265625 3.265625 8.484375.128906 11.820312l-.691406.671875c-1.589844 1.566407-3.734375 2.445313-5.964844 2.449219zm0 0"/><path d="m136.539062 204.863281c-4.15625-.007812-7.703124-3.011719-8.394531-7.109375-4.035156-37.625 14.019531-74.195312 46.34375-93.867187 3.921875-2.613281 9.21875-1.554688 11.835938 2.363281 2.613281 3.921875 1.558593 9.222656-2.363281 11.835938-26.695313 15.996093-41.851563 45.882812-38.980469 76.871093.402343 2.472657-.300781 5-1.925781 6.90625s-4.007813 3.003907-6.515626 3zm0 0"/><path d="m213.339844 93.929688c0 4.710937-3.820313 8.535156-8.53125 8.535156-4.714844 0-8.535156-3.824219-8.535156-8.535156 0-4.714844 3.820312-8.535157 8.535156-8.535157 4.710937 0 8.53125 3.820313 8.53125 8.535157zm0 0"/><path d="m206.515625 411.539062c-2.628906.003907-5.113281-1.203124-6.734375-3.269531-1.617188-2.070312-2.195312-4.769531-1.5625-7.320312l6.828125-27.476563c.734375-2.960937 2.992187-5.304687 5.921875-6.148437 2.933594-.84375 6.089844-.058594 8.285156 2.058593 2.199219 2.117188 3.097656 5.242188 2.363282 8.203126l-6.824219 27.476562c-.945313 3.804688-4.359375 6.476562-8.277344 6.476562zm0 0"/><path d="m296.96875 411.285156c-3.914062-.003906-7.320312-2.667968-8.269531-6.460937l-6.828125-27.222657c-1.105469-4.554687 1.671875-9.152343 6.21875-10.289062 4.546875-1.140625 9.164062 1.601562 10.335937 6.144531l6.828125 27.21875c1.144532 4.574219-1.632812 9.207031-6.203125 10.351563-.683593.167968-1.382812.253906-2.082031.257812zm0 0"/><path d="m232.890625 414.269531c-.574219.003907-1.144531-.050781-1.707031-.160156-2.21875-.445313-4.171875-1.757813-5.421875-3.640625-1.253907-1.886719-1.707031-4.191406-1.257813-6.414062l6.058594-30.207032c1.035156-4.5 5.464844-7.359375 9.996094-6.449218 4.527344.910156 7.511718 5.257812 6.726562 9.8125l-6.050781 30.207031c-.796875 3.976562-4.285156 6.84375-8.34375 6.851562zm0 0"/><path d="m270.589844 414.269531c-4.054688.003907-7.550782-2.851562-8.363282-6.824219l-6.050781-30.210937c-.695312-3.023437.304688-6.191406 2.617188-8.265625s5.570312-2.730469 8.503906-1.707031c2.933594 1.019531 5.078125 3.550781 5.605469 6.613281l6.058594 30.207031c.449218 2.21875-.003907 4.523438-1.257813 6.410157-1.253906 1.886718-3.203125 3.195312-5.421875 3.640624-.558594.101563-1.125.148438-1.691406.136719zm0 0"/><path d="m213.339844 437.140625c-3.921875-.003906-7.335938-2.679687-8.277344-6.484375l-6.570312-26.53125c-.734376-2.960938.164062-6.085938 2.363281-8.203125 2.195312-2.117187 5.355469-2.902344 8.285156-2.058594s5.1875 3.1875 5.921875 6.148438l6.570312 26.546875c.632813 2.550781.054688 5.246094-1.566406 7.3125s-4.101562 3.273437-6.726562 3.269531zm0 0"/><path d="m290.140625 436.882812c-.703125 0-1.402344-.085937-2.082031-.253906-4.570313-1.144531-7.347656-5.78125-6.203125-10.351562l6.75-26.726563c1.367187-4.484375 6.097656-7.023437 10.59375-5.6875 4.492187 1.335938 7.066406 6.046875 5.761719 10.550781l-.253907.855469-6.296875 25.15625c-.953125 3.792969-4.359375 6.453125-8.269531 6.457031zm0 0"/><path d="m238.941406 435.261719c-3.828125 0-7.1875-2.542969-8.21875-6.226563l-5.886718-20.992187 8.132812-2.648438 8.265625-2.113281 5.921875 21.144531c.722656 2.570313.199219 5.332031-1.414062 7.460938-1.613282 2.125-4.132813 3.375-6.800782 3.375zm0 0"/><path d="m264.539062 435.261719c-2.667968 0-5.1875-1.25-6.800781-3.375-1.613281-2.128907-2.136719-4.890625-1.414062-7.460938l5.886719-20.992187c1.265624-4.53125 5.902343-7.238282 10.46875-6.109375 2.164062.539062 4.023437 1.914062 5.167968 3.828125 1.144532 1.910156 1.480469 4.199218.933594 6.359375l-.085938.34375-5.972656 21.179687c-1.027344 3.671875-4.367187 6.214844-8.183594 6.226563zm0 0"/><path d="m251.742188 478.339844c-12.109376 0-24.210938-.488282-36.226563-1.460938-19.089844-1.210937-36.675781-10.777344-48.066406-26.144531-9.203125-12.523437-12.414063-28.464844-8.773438-43.570313l1.03125-4.609374c2.578125-11.03125 13.425781-18.046876 24.542969-15.871094 4.632812.871094 7.683594 5.332031 6.808594 9.964844-.871094 4.632812-5.332032 7.683593-9.964844 6.8125-2.09375-.453126-4.175781.808593-4.746094 2.875l-1.074218 4.785156c-2.53125 10.296875-.316407 21.1875 6.042968 29.671875 8.472656 11.28125 21.488282 18.261719 35.574219 19.082031 23.195313 1.875 46.503906 1.875 69.699219 0 14.089844-.824219 27.101562-7.804688 35.574218-19.089844 6.332032-8.414062 8.566407-19.214844 6.09375-29.449218l-1.132812-5.042969c-.574219-2.054688-2.65625-3.296875-4.738281-2.832031l-1.175781.21875c-3.011719.601562-6.109376-.460938-8.121094-2.777344-2.007813-2.320313-2.617188-5.539063-1.59375-8.433594 1.019531-2.894531 3.519531-5.015625 6.539062-5.554688l1.1875-.222656c11.109375-2.214844 21.972656 4.785156 24.542969 15.820313l1.089844 4.863281c3.574219 15.042969.351562 30.898438-8.8125 43.351562-11.394531 15.367188-28.984375 24.9375-48.078125 26.152344-12.015625.972656-24.125 1.460938-36.222656 1.460938zm0 0"/></svg>